<svg class="carLogo" xmlns="http://www.w3.org/2000/svg" viewBox="0 0 500 500"><path id="Window" d="M1012.71,466" transform="translate(-670 -301.07)" fill="none" stroke="#8f8f8f" stroke-miterlimit="10" stroke-width="2" fill-rule="evenodd"/><path id="Drive_seat" data-name="Drive seat" d="M966,679.27,770.12,630.54s-7.19.05-7.84-4.43-8.6-11.36-8.14-14,2.38-9.69,4.94-11,2.56-1.28,16-21.77c0,0,3.85-4.49,15.38-3.85h9s35.23-22.41,123,29.47c0,0-1.92-9,0-14.74,0,0-12.81-30.1-1.92-40.35,0,0,41.56-50.9,58.93-81.34,17-29.87,19.21-32.66,30.1-33.94,0,0,15.37-2.56,26.9,8.33Z" transform="translate(-670 -301.07)" fill="none" stroke="#8f8f8f" stroke-miterlimit="10" stroke-width="2" fill-rule="evenodd"/><path id="D_seat_detail" data-name="D seat detail" d="M766.77,630s-6.59-19.09,40.32-20.37c22.88-.62,47.88,2.26,70.13,10A100.32,100.32,0,0,1,904,633.84c9,6.64,22.73,15.6,29.32,17.25,0,0-28.53-46.43,11.53-91,11.53-12.81,29.46-42.91,45.47-73,12-22.53,24.34-39.07,25.62-41.63,5.63-11.26-6.4-10.89-10.24-10.25" transform="translate(-670 -301.07)" fill="none" stroke="#8f8f8f" stroke-miterlimit="10" fill-rule="evenodd"/><path id="D_head_rest" data-name="D head rest" d="M999.16,377l-.52,45.62a7,7,0,0,0,3.23,6c4.31,2.74,14.28,4.38,37.26-4.13a6.61,6.61,0,0,0,4.27-5.39c1.19-9.85,2.29-36.92-9.69-61.69a7.6,7.6,0,0,0-5.84-4.25c-5.28-.68-14.59-.89-20.92,4.59C1002.43,361.66,999.26,369.92,999.16,377Z" transform="translate(-670 -301.07)" fill="none" stroke="#8f8f8f" stroke-miterlimit="10" stroke-width="2" fill-rule="evenodd"/><path id="D_headrest_detail" data-name="D headrest detail" d="M1013.35,372.48s-3.84,1.92-4.48,5.13,0,41.63,0,41.63,5.27,1.14,6.4-1.92C1016.65,413.57,1013.35,372.48,1013.35,372.48Z" transform="translate(-670 -301.07)" fill="none" stroke="#8f8f8f" stroke-miterlimit="10" fill-rule="evenodd"/><path id="P_seat_body" data-name="P seat body" d="M1101.83,439.28a65.09,65.09,0,0,0-42.65-7.74c-13,2.2-22.92,8-29,17.89-14.23,22.93-38.15,65.4-60,96.3-15.32,21.64-28.88,38.42-38.19,49.37a37.57,37.57,0,0,0-6.37,38,401.33,401.33,0,0,0,18.19,39.2l-1.92,7s-19-8.24-22.31-10c-10.89-5.76-24.34-25.62-46.11-32.66-37.89-12.26-93.58-17.33-117.85,1.28,0,0-26.66-.3-32,3.2-3.57,2.33-10.06,11.3-17.94,20.5-15.39,18-34.15,37.13-34.58,46.75-.64,14.09,16.65,32,16.65,32h0a18.51,18.51,0,0,0,3.16,15.19l7.89,10.53a41.49,41.49,0,0,0,30.87,17.26L915,800l-.16-1.94a11.91,11.91,0,0,1,8.8-12.47h0l35.87-25h0a102.31,102.31,0,0,0,22.07-22.67h0a10.66,10.66,0,0,0,1.91-5.12l1.44-14.4a7.85,7.85,0,0,1,9.16-6.95l34.09,6a5.67,5.67,0,0,1,4.67,5.93l-.33,5.2c-.06,0,6.41-10.25,9.81-15.89.12-.2,32.43-79.38,38-98.84l24.84-99.68a186.25,186.25,0,0,1,8.22-24.7l6.14-14.87a25.36,25.36,0,0,0,2-9.2,22.94,22.94,0,0,0-7.7-18A76,76,0,0,0,1101.83,439.28Z" transform="translate(-670 -301.07)" fill="none" stroke="#8f8f8f" stroke-miterlimit="10" stroke-width="2" fill-rule="evenodd"/><path id="Headrest_P" data-name="Headrest P" d="M1041.8,337.14l-1.87,80.5c7.69,16.65,85.82,3.84,87.1-11.53,0,0,5.4-58.7-18.58-98.48a10.53,10.53,0,0,0-7.5-5c-11-1.59-38-1.64-58,30.51A8.1,8.1,0,0,0,1041.8,337.14Z" transform="translate(-670 -301.07)" fill="none" stroke="#8f8f8f" stroke-miterlimit="10" stroke-width="2" fill-rule="evenodd"/><path id="Headrest_P_inside" data-name="Headrest P inside" d="M1074.52,333.09s-14.73,5.13-16,10.25,0,66,0,66,17.94.64,19.86-1.92S1085.4,374.08,1074.52,333.09Z" transform="translate(-670 -301.07)" fill="none" stroke="#8f8f8f" stroke-miterlimit="10" fill-rule="evenodd"/><path id="P_seat_detail" data-name="P seat detail" d="M691.19,756.13c-7-22.42,9.61-36.51,46.12-39.71,21.11-1.85,107-3.2,150.51,25,25.95,16.79,54.44,31.38,54.44,31.38" transform="translate(-670 -301.07)" fill="none" stroke="#8f8f8f" stroke-miterlimit="10" fill-rule="evenodd"/><path id="P_seat_detail-2" data-name="P seat detail" d="M1042.81,437.17c55.72-17.29,35.23,24.34,4.49,73.66-18.55,29.75-33.07,68.69-46.76,92.22-27.13,46.66-65.87,67-53.39,110a71.48,71.48,0,0,0,7.61,17.12l13.76,22.76" transform="translate(-670 -301.07)" fill="none" stroke="#8f8f8f" stroke-miterlimit="10" fill-rule="evenodd"/></svg>