<svg class="eyeLogo" xmlns="http://www.w3.org/2000/svg" viewBox="0 0 500 500"><path d="M1146,516.65h-40.31c-16.45-96.9-100.76-170.71-202.35-170.71C790,345.94,698,437.86,698,551.25S790,756.56,903.34,756.56c101.59,0,185.9-73.81,202.35-170.71H1146Z" transform="translate(-649.28 -344.94)" fill="none" stroke="#8f8f8f" stroke-miterlimit="10" stroke-width="2"/><path d="M801.69,552.44c0,32.08-22.3,58.08-31.32,58.08S754,584.52,754,552.44s7.32-58.07,16.34-58.07S801.69,520.37,801.69,552.44Z" transform="translate(-649.28 -344.94)" fill="none" stroke="#8f8f8f" stroke-miterlimit="10" stroke-width="2"/><path d="M744.82,526.6H723V452a116.1,116.1,0,0,0,0,198.46V580.67h21.86Z" transform="translate(-649.28 -344.94)" fill="none" stroke="#8f8f8f" stroke-miterlimit="10" stroke-width="2"/><path d="M1088.23,494.58c11.61,0,21,25.91,21,57.86s-9.42,57.86-21,57.86S1076.62,494.58,1088.23,494.58Z" transform="translate(-649.28 -344.94)" fill="none" stroke="#8f8f8f" stroke-miterlimit="10" stroke-width="2"/><polygon points="0.5 168.52 0.5 248.87 430.72 191.41 430.72 221.94 0.5 168.52" fill="none" stroke="#8f8f8f" stroke-miterlimit="10"/></svg>